HIERARCHY
ROOT COM
{
  OFFSET 0.000000 0.000000 0.000000
  CHANNELS 6 Xposition Yposition Zposition Zrotation Xrotation Yrotation
  JOINT Spine
  {
    OFFSET 0.000000 10.031300 -3.647750
    CHANNELS 3 Zrotation Xrotation Yrotation
    JOINT Spine1
    {
      OFFSET 0.000000 14.268000 -0.012359
      CHANNELS 3 Zrotation Xrotation Yrotation
      JOINT Spine2
      {
        OFFSET 0.000000 15.553400 -0.011802
        CHANNELS 3 Zrotation Xrotation Yrotation
        JOINT Neck
        {
          OFFSET 0.000000 15.343700 -0.005077
          CHANNELS 3 Zrotation Xrotation Yrotation
          JOINT Head
          {
            OFFSET 0.000000 6.594300 0.000000
            CHANNELS 3 Zrotation Xrotation Yrotation
            End Site
            {
              OFFSET 0.000000 0.000000 0.000000
            }
          }
          JOINT Leftcollar
          {
            OFFSET 4.254290 -1.548100 1.990670
            CHANNELS 3 Zrotation Xrotation Yrotation
            JOINT LeftArm
            {
              OFFSET 16.825900 0.000000 0.000000
              CHANNELS 3 Zrotation Xrotation Yrotation
              JOINT LeftForeArm
              {
                OFFSET 0.000000 -28.058000 0.000000
                CHANNELS 3 Zrotation Xrotation Yrotation
                JOINT LeftHand
                {
                  OFFSET 0.000000 -24.725300 0.000000
                  CHANNELS 3 Zrotation Xrotation Yrotation
                  End Site
                  {
                    OFFSET -2.986150 -9.946190 -0.575321
                  }
                }
              }
            }
          }
          JOINT RightCollar
          {
            OFFSET -4.254280 -1.548090 1.990690
            CHANNELS 3 Zrotation Xrotation Yrotation
            JOINT RightArm
            {
              OFFSET -16.825900 0.000000 0.000000
              CHANNELS 3 Zrotation Xrotation Yrotation
              JOINT RightForeArm
              {
                OFFSET 0.000000 -28.058000 0.000000
                CHANNELS 3 Zrotation Xrotation Yrotation
                JOINT RightHand
                {
                  OFFSET 0.000000 -24.725300 0.000000
                  CHANNELS 3 Zrotation Xrotation Yrotation
                  End Site
                  {
                    OFFSET 2.986150 -9.946180 -0.575319
                  }
                }
              }
            }
          }
        }
      }
    }
  }
  JOINT LeftUpLeg
  {
    OFFSET 9.942750 0.000000 0.000000
    CHANNELS 3 Zrotation Xrotation Yrotation
    JOINT LeftLeg
    {
      OFFSET 0.000000 -45.973000 0.000000
      CHANNELS 3 Zrotation Xrotation Yrotation
      JOINT LeftFoot
      {
        OFFSET 0.000000 -43.163400 0.000000
        CHANNELS 3 Zrotation Xrotation Yrotation
        JOINT LeftToe
        {
          OFFSET 0.000000 0.000000 15.628600
          CHANNELS 3 Zrotation Xrotation Yrotation
          End Site
          {
            OFFSET 0.000000 0.000000 0.000000
          }
        }
      }
    }
  }
  JOINT RightUpLeg
  {
    OFFSET -9.942750 0.000000 0.000000
    CHANNELS 3 Zrotation Xrotation Yrotation
    JOINT RightLeg
    {
      OFFSET 0.000000 -45.973000 0.000000
      CHANNELS 3 Zrotation Xrotation Yrotation
      JOINT RightFoot
      {
        OFFSET 0.000000 -43.163400 0.000000
        CHANNELS 3 Zrotation Xrotation Yrotation
        JOINT RightToe
        {
          OFFSET 0.000000 0.000000 15.628600
          CHANNELS 3 Zrotation Xrotation Yrotation
          End Site
          {
            OFFSET 0.000000 0.000000 0.000000
          }
        }
      }
    }
  }
}
MOTION
Frames: 17
Frame Time: 0.033333
28.893200 89.247200 -15.335300 353.806700 3.985440 4.907590 8.392010 353.999170 0.000000 360.000000 360.000000 346.178300 360.000000 360.000000 360.000000 360.000000 360.000000 360.000000 360.000000 360.000000 360.000000 360.000000 360.000000 360.000000 26.424200 344.334500 353.309500 360.000000 315.946000 360.000000 360.000000 0.000000 90.000000 360.000000 360.000000 360.000000 341.305400 26.246900 27.812300 0.000000 348.242700 360.000000 0.000000 360.000000 270.000000 11.454400 16.647700 31.477600 0.000000 24.120500 360.000000 360.000000 9.787110 341.117400 0.000000 360.000000 0.000000 12.471700 341.703700 314.346400 0.000000 0.343076 360.000000 360.000000 26.823400 25.688000 0.000000 360.000000 0.000000 
28.174900 89.792700 -10.938100 352.305410 3.000810 3.343550 10.225400 354.072900 0.000000 360.000000 0.000000 348.830000 360.000000 360.000000 360.000000 360.000000 360.000000 360.000000 360.000000 360.000000 360.000000 360.000000 360.000000 360.000000 23.796500 347.166600 350.232900 0.000000 318.506500 0.000000 0.000000 0.000000 90.000000 360.000000 360.000000 360.000000 341.530300 24.230100 29.949600 0.000000 347.119600 360.000000 360.000000 360.000000 270.000000 15.537900 15.638700 29.773500 360.000000 32.763000 0.000000 360.000000 17.013500 343.257600 0.000000 0.000000 0.000000 14.425900 344.961500 316.091100 0.000000 2.410870 360.000000 360.000000 24.162100 25.515600 0.000000 0.000000 360.000000 
27.663400 90.396200 -7.235350 352.087010 2.180390 3.360640 10.460000 354.598510 0.000000 0.000000 0.000000 349.610100 0.000000 0.000000 0.000000 0.000000 0.000000 0.000000 0.000000 0.000000 0.000000 0.000000 0.000000 0.000000 21.934200 349.781100 347.105200 360.000000 321.680900 360.000000 0.000000 0.000000 90.000000 0.000000 0.000000 0.000000 341.386000 20.710600 31.660800 360.000000 344.603300 0.000000 360.000000 360.000000 270.000000 17.983600 11.381400 24.346600 360.000000 43.002900 0.000000 360.000000 24.673800 348.774300 0.000000 0.000000 0.000000 14.580200 347.858800 313.294700 360.000000 3.677600 360.000000 0.000000 22.207000 28.449200 360.000000 0.000000 360.000000 
27.042000 90.871800 -3.967340 352.618230 1.861030 3.047150 9.734290 355.010930 0.000000 0.000000 360.000000 350.699800 360.000000 0.000000 360.000000 360.000000 0.000000 360.000000 360.000000 0.000000 360.000000 360.000000 0.000000 360.000000 20.773500 352.489590 343.979400 0.000000 324.797100 0.000000 360.000000 0.000000 90.000000 360.000000 0.000000 360.000000 341.154900 15.937800 33.437800 0.000000 342.278200 360.000000 360.000000 0.000000 270.000000 18.966100 5.912860 20.738300 360.000000 52.355900 0.000000 0.000000 29.136400 354.260620 0.000000 0.000000 360.000000 14.598700 350.442210 311.920000 360.000000 3.597250 360.000000 0.000000 20.859800 30.311300 0.000000 0.000000 360.000000 
26.455300 91.284200 -0.814826 353.512890 1.039610 2.131890 8.670260 356.025010 0.000000 0.000000 360.000000 352.070810 0.000000 0.000000 0.000000 0.000000 0.000000 0.000000 0.000000 0.000000 0.000000 0.000000 0.000000 0.000000 19.706200 355.478030 341.389700 0.000000 328.283800 0.000000 360.000000 0.000000 90.000000 0.000000 0.000000 0.000000 340.150400 10.926900 34.716000 0.000000 338.667100 360.000000 360.000000 360.000000 270.000000 18.980800 1.354950 18.143100 0.000000 59.214200 360.000000 0.000000 24.138400 357.430650 0.000000 360.000000 360.000000 14.334600 353.443320 312.693800 360.000000 3.579410 0.000000 0.000001 19.274500 30.304000 360.000000 360.000000 0.000000 
25.846700 91.643800 2.316450 354.896440 0.443711 0.089557 7.109800 356.721450 0.000000 360.000000 360.000000 354.004310 0.000000 0.000000 0.000000 0.000000 0.000000 0.000000 0.000000 0.000000 0.000000 0.000000 0.000000 0.000000 18.774300 359.015037 339.732400 360.000000 332.081800 0.000000 0.000000 0.000000 90.000000 0.000000 0.000000 0.000000 339.040500 5.493270 34.113400 360.000000 334.820300 360.000000 360.000000 0.000000 270.000000 18.055400 357.310400 16.846700 0.000000 62.788400 360.000000 0.000000 20.108600 359.325626 0.000000 0.000000 0.000000 13.489000 356.229030 314.115800 0.000000 3.941640 360.000000 0.000000 17.517800 30.712300 360.000000 360.000000 0.000000 
25.155900 91.874000 5.128080 355.889590 0.593997 357.712600 5.932830 356.795130 0.000000 0.000000 360.000000 355.744460 360.000000 360.000000 0.000000 360.000000 0.000000 0.000000 360.000000 0.000000 0.000000 360.000000 0.000000 0.000000 17.961200 3.027010 339.648700 360.000000 335.249700 0.000000 0.000000 0.000000 90.000000 360.000000 0.000000 0.000000 337.635500 359.877249 33.051300 0.000000 330.316300 0.000000 0.000000 0.000000 270.000000 17.665200 352.771400 16.653200 360.000000 63.923000 0.000000 360.000000 17.173800 0.776668 360.000000 360.000000 360.000000 12.833700 357.965770 315.483700 360.000000 4.567350 0.000000 0.000000 16.123600 31.773900 0.000000 0.000000 360.000000 
24.553600 92.033700 7.955090 357.132560 0.897975 354.893040 4.717740 356.619720 360.000000 360.000000 0.000000 357.551720 0.000000 360.000000 0.000000 0.000000 360.000000 360.000000 0.000000 360.000000 360.000000 0.000000 360.000000 360.000000 17.001600 7.016200 340.308100 360.000000 338.719800 0.000000 0.000000 360.000000 90.000000 0.000000 360.000000 360.000000 336.144900 354.838240 30.556200 0.000000 324.932000 0.000000 360.000000 360.000000 270.000000 16.840700 348.684900 16.885000 0.000000 62.295200 360.000000 360.000000 14.958400 1.822930 0.000000 0.000000 0.000000 11.692000 359.421314 316.923900 0.000000 5.450710 0.000000 0.000000 14.592400 33.077600 0.000000 360.000000 360.000000 
23.986900 92.072100 10.526200 358.145970 1.656140 352.449330 3.765290 356.097970 360.000000 0.000000 360.000000 358.966070 0.000000 360.000000 360.000000 0.000000 360.000000 360.000000 0.000000 360.000000 360.000000 0.000000 360.000000 360.000000 16.288100 10.619100 340.477500 360.000000 341.778400 0.000000 0.000000 0.000000 90.000000 0.000000 360.000000 360.000000 334.756200 349.916700 27.862500 0.000000 320.080300 0.000000 0.000000 360.000000 270.000000 16.102600 344.107200 16.495700 360.000000 58.825500 360.000000 360.000000 12.838500 2.655240 0.000000 360.000000 0.000000 10.627400 0.094967 318.330500 0.000000 6.495450 360.000000 360.000000 13.238700 34.199200 360.000000 0.000000 360.000000 
23.476300 92.032000 13.054000 358.855300 2.222610 349.954500 3.214970 355.816840 360.000000 0.000000 360.000000 0.124635 0.000000 0.000000 0.000000 360.000000 0.000000 360.000000 360.000000 0.000000 360.000000 360.000000 0.000000 360.000000 15.541600 13.710600 340.518500 360.000000 344.901900 0.000000 360.000000 0.000000 90.000000 360.000000 0.000000 360.000000 333.199300 345.321600 25.498600 360.000000 315.472800 360.000000 0.000000 360.000000 270.000000 15.708900 340.289300 16.396100 0.000000 53.734400 360.000000 0.000000 10.562200 3.124250 0.000000 0.000000 0.000000 9.887970 0.912673 320.628900 360.000000 7.349170 0.000000 360.000000 11.769800 34.146200 0.000000 0.000000 0.000000 
22.978200 91.966000 15.617400 359.526953 2.687800 347.582600 2.695630 355.631970 0.000000 360.000000 0.000000 1.126700 0.000000 0.000000 0.000000 0.000000 0.000000 0.000000 0.000000 0.000000 0.000000 0.000000 0.000000 0.000000 14.713200 16.292400 340.916600 0.000000 347.804500 0.000000 0.000000 0.000000 90.000000 0.000000 0.000000 0.000000 331.543000 341.353900 23.490000 0.000000 311.444300 0.000000 360.000000 360.000000 270.000000 15.177600 337.276900 16.361600 0.000000 47.051100 360.000000 360.000000 8.776520 3.512560 360.000000 360.000000 360.000000 9.122050 1.824200 323.596900 360.000000 8.154170 360.000000 0.000000 10.293000 33.440700 360.000000 360.000000 0.000000 
22.527500 91.845700 18.183800 0.279445 3.249740 345.514400 2.127950 355.284230 0.000000 0.000000 0.000000 1.851050 0.000000 0.000000 0.000000 0.000000 0.000000 0.000000 0.000000 0.000000 0.000000 0.000000 0.000000 0.000000 14.034800 18.523600 341.611500 360.000000 349.701900 0.000000 0.000000 0.000000 90.000000 0.000000 0.000000 0.000000 329.992600 338.117200 21.582600 0.000000 308.074100 360.000000 360.000000 0.000000 270.000000 14.368100 334.743900 16.740400 360.000000 39.123800 360.000000 360.000000 8.619870 3.426160 360.000000 0.000000 360.000000 8.245700 2.687790 325.309900 0.000000 8.613100 360.000000 360.000000 9.108980 33.850600 0.000000 360.000000 360.000000 
22.073200 91.693600 20.858400 0.852506 3.557010 343.188100 1.812830 355.209570 360.000000 360.000000 0.000000 2.732940 0.000000 0.000000 0.000000 0.000000 0.000000 0.000000 0.000000 0.000000 0.000000 0.000000 0.000000 0.000000 13.353100 20.031200 342.441100 360.000000 351.330590 0.000000 360.000000 360.000000 90.000000 0.000000 0.000000 0.000000 328.443500 335.657800 19.797100 360.000000 305.131000 360.000000 360.000000 360.000000 270.000000 13.517700 333.380500 18.480900 0.000000 30.242200 360.000000 0.000000 9.217560 1.812440 360.000000 360.000000 0.000000 7.260600 3.874560 326.306500 360.000000 9.114060 0.000000 0.000000 8.290610 35.252000 360.000000 0.000000 360.000000 
21.563600 91.417300 23.636800 1.100380 4.347960 341.240200 1.930480 354.572390 0.000000 0.000000 0.000000 3.239770 0.000000 0.000000 0.000000 0.000000 0.000000 0.000000 0.000000 0.000000 0.000000 0.000000 0.000000 0.000000 13.150600 21.520400 342.536500 0.000000 351.413800 0.000000 360.000000 0.000000 90.000000 0.000000 0.000000 0.000000 327.205100 334.162700 18.642700 0.000000 302.959800 0.000000 360.000000 0.000000 270.000000 12.576300 332.422100 22.141900 0.000000 20.309500 0.000000 360.000000 10.752700 356.980970 0.000000 0.000000 0.000000 6.740960 4.808820 326.866400 0.000000 9.374570 0.000000 360.000000 7.362210 36.614500 0.000000 0.000000 360.000000 
21.054300 91.033200 26.563600 1.270790 5.422290 338.623400 2.496840 353.526910 360.000000 0.000000 360.000000 4.294500 0.000000 0.000000 0.000000 0.000000 0.000000 0.000000 0.000000 0.000000 0.000000 0.000000 0.000000 0.000000 12.851900 22.429000 343.150800 0.000000 351.092220 0.000000 360.000000 0.000000 90.000000 0.000000 0.000000 0.000000 326.377800 333.385800 17.925900 0.000000 301.651700 360.000000 360.000000 360.000000 270.000000 11.582500 331.802600 28.031000 360.000000 10.711500 360.000000 360.000000 12.763800 347.772300 0.000000 0.000000 0.000000 6.173240 5.532360 327.967800 360.000000 9.681820 360.000000 360.000000 6.914260 38.269800 360.000000 0.000000 360.000000 
20.550400 90.560800 29.618100 1.122830 6.209770 336.173000 3.392240 352.939310 0.000000 360.000000 360.000000 4.969290 0.000000 0.000000 0.000000 0.000000 0.000000 0.000000 0.000000 0.000000 0.000000 0.000000 0.000000 0.000000 12.702000 22.712600 344.125000 360.000000 350.511550 360.000000 0.000000 360.000000 90.000000 0.000000 0.000000 0.000000 325.736200 333.219000 18.003000 360.000000 300.923200 360.000000 0.000000 360.000000 270.000000 10.417400 331.355800 30.931500 360.000000 3.199330 360.000000 360.000000 14.227800 336.345700 0.000000 0.000000 0.000000 5.668620 6.725200 328.554500 360.000000 9.934460 360.000000 0.000000 6.648970 40.276300 0.000000 360.000000 0.000000 
20.025600 90.087800 32.804600 0.957588 6.645800 333.159500 4.365600 352.723810 0.000000 360.000000 360.000000 5.936180 0.000000 0.000000 0.000000 0.000000 0.000000 0.000000 0.000000 0.000000 0.000000 0.000000 0.000000 0.000000 12.433400 22.369600 345.549000 0.000000 349.913600 360.000000 360.000000 0.000000 90.000000 0.000000 0.000000 0.000000 325.681300 333.602400 18.814700 0.000000 301.159600 360.000000 360.000000 0.000000 270.000000 9.874730 331.555100 30.603100 360.000000 359.233073 0.000000 0.000000 14.258700 327.428200 0.000000 0.000000 0.000000 4.732710 8.084350 329.611000 360.000000 10.635100 0.000000 360.000000 6.637090 42.392700 0.000000 0.000000 360.000000 
